Coordinates
version=1
nRows=12
nColumns=24
inDegrees=yes

Units are S.I. units (second, meters, Newtons, ...)
Angles are in degrees.

endheader
time	pelvis_tilt	pelvis_list	pelvis_rotation	pelvis_tx	pelvis_ty	pelvis_tz	hip_flexion_r	hip_adduction_r	hip_rotation_r	knee_angle_r	ankle_angle_r	subtalar_angle_r	mtp_angle_r	hip_flexion_l	hip_adduction_l	hip_rotation_l	knee_angle_l	ankle_angle_l	subtalar_angle_l	mtp_angle_l	lumbar_extension	lumbar_bending	lumbar_rotation
      4.57000000	     -4.93682406	      6.13185211	      5.00306607	     -0.96748629	      1.06584520	      0.16840481	     25.88835264	     -7.86438934	     -6.77959253	    -27.50696697	      5.64807202	    -18.22404720	      0.00000000	    -13.89529154	      9.54170829	      6.44973433	      7.27165434	     -4.03328747	    -16.86569833	      0.00000000	     -9.58040205	     -7.48454653	    -22.55359141
      4.58000000	     -5.05058102	      6.31961870	      5.47482453	     -0.94997085	      1.06404178	      0.16893806	     25.97385957	     -8.15499210	     -6.93444423	    -23.77112495	      6.61709044	    -15.78151034	      0.00000000	    -14.76546485	      9.48802678	      6.98399585	      7.15741354	     -4.27557826	    -16.93059449	      0.00000000	     -9.60541548	     -7.71841379	    -23.08476422
      4.59000000	     -5.12581615	      6.53525355	      5.92780591	     -0.93223459	      1.06205512	      0.16953523	     25.95260981	     -8.45375920	     -7.03606003	    -20.08155143	      7.31750931	    -13.56100332	      0.00000000	    -15.65121179	      9.43205874	      7.50980699	      6.97532197	     -4.52857664	    -16.97607494	      0.00000000	     -9.66886212	     -7.97939134	    -23.60277527
      4.60000000	     -5.10941500	      6.76464347	      6.35202085	     -0.91426302	      1.05998461	      0.17023467	     25.78203120	     -8.73052230	     -7.02475789	    -16.50471589	      7.70350884	    -11.82128832	      0.00000000	    -16.61510154	      9.34682793	      8.03421309	      6.74225653	     -4.77143586	    -16.91764122	      0.00000000	     -9.83165431	     -8.24399098	    -24.11021724
      4.61000000	     -5.00604395	      7.00182447	      6.71483284	     -0.89607273	      1.05785314	      0.17110376	     25.49295413	     -8.96748622	     -6.84218238	    -13.12583101	      7.82295414	    -10.64609638	      0.00000000	    -17.63987672	      9.23191944	      8.52809003	      6.44871537	     -4.99635544	    -16.75625325	      0.00000000	    -10.08491967	     -8.51545082	    -24.59151043
      4.62000000	     -4.79422095	      7.21501138	      6.99924435	     -0.87765280	      1.05572731	      0.17212790	     25.08572823	     -9.14392691	     -6.57368356	    -10.03462375	      7.80898408	     -9.91364050	      0.00000000	    -18.73816492	      9.05780270	      8.99893248	      6.09413295	     -5.22971580	    -16.51901414	      0.00000000	    -10.44316219	     -8.73904398	    -25.03718045
      4.63000000	     -4.44720857	      7.36900783	      7.18697858	     -0.85899479	      1.05369057	      0.17333171	     24.55316283	     -9.22147098	     -6.31493871	     -7.30559751	      7.71611912	     -9.52386493	      0.00000000	    -19.91956000	      8.79449061	      9.43918065	      5.66462444	     -5.47366992	    -16.23084175	      0.00000000	    -10.92550203	     -8.87048304	    -25.43808181
      4.64000000	     -3.97509930	      7.43628468	      7.26407755	     -0.84008575	      1.05176821	      0.17472598	     23.93331202	     -9.16432075	     -6.12666572	     -5.01783036	      7.60313263	     -9.39632780	      0.00000000	    -21.15824522	      8.43011563	      9.83795223	      5.14924591	     -5.78779047	    -15.90717482	      0.00000000	    -11.50817527	     -8.88549685	    -25.76203081
      4.65000000	     -3.41135422	      7.40715994	      7.22818599	     -0.82088476	      1.04994467	      0.17630144	     23.27541574	     -8.95445215	     -5.95996491	     -3.23386902	      7.45379571	     -9.57838054	      0.00000000	    -22.39770219	      7.98147855	     10.16123105	      4.51163431	     -6.24694947	    -15.62511272	      0.00000000	    -12.12652585	     -8.77185009	    -26.00174475
      4.66000000	     -2.75382306	      7.33814060	      7.10310742	     -0.80142041	      1.04828163	      0.17801804	     22.62894672	     -8.66546486	     -6.09905100	     -2.08871241	      7.49197878	     -9.47580809	      0.00000000	    -23.61835270	      7.52057061	     10.37981292	      3.69461048	     -6.71640743	    -15.25610373	      0.00000000	    -12.80921061	     -8.61509238	    -26.19974811
      4.67000000	     -2.02238916	      7.16638783	      6.87647723	     -0.78159180	      1.04672163	      0.17986314	     22.00142810	     -8.22216382	     -6.34047023	     -1.58031898	      7.60576285	     -9.37129236	      0.00000000	    -24.78109438	      7.01743644	     10.36448439	      2.67794327	     -7.37035799	    -14.88911597	      0.00000000	    -13.49210421	     -8.33832583	    -26.29238546
      4.68000000	     -1.24576643	      6.93477194	      6.59378988	     -0.76138565	      1.04524077	      0.18178749	     21.41572353	     -7.69590810	     -6.67702770	     -1.72625862	      7.80041521	     -9.15414010	      0.00000000	    -25.84767989	      6.51597803	     10.10758864	      1.42598623	     -8.14207506	    -14.35956874	      0.00000000	    -14.14972461	     -8.01037090	    -26.34366733
